<?xml version="1.0" encoding="utf-8"?>
<!-- Generator: Adobe Illustrator 16.2.0, SVG Export Plug-In . SVG Version: 6.00 Build 0)  -->
<!DOCTYPE svg PUBLIC "-//W3C//DTD SVG 1.1//EN" "http://www.w3.org/Graphics/SVG/1.1/DTD/svg11.dtd">
<svg version="1.1" id="Layer_1" xmlns="http://www.w3.org/2000/svg" xmlns:xlink="http://www.w3.org/1999/xlink" x="0px" y="0px"
	 width="300px" height="300px" viewBox="0 0 300 300" enable-background="new 0 0 300 300" xml:space="preserve">
<title>SitePoint</title>
<desc>The SitePoint Logo</desc>
<g id="main">
	<path fill="#E50ADB" stroke="#000000" stroke-miterlimit="10" d="M150,7.688c78.596,0,142.313,63.717,142.313,142.313
		S228.596,292.313,150,292.313C71.403,292.313,7.688,228.596,7.688,150C7.688,71.401,71.403,7.688,150,7.688z M150,84.828
		c-35.994,0-65.172,29.177-65.172,65.172s29.178,65.172,65.172,65.172s65.17-29.177,65.17-65.172S185.994,84.828,150,84.828z"/>
	<polyline fill="#E50ADB" stroke="#000000" stroke-miterlimit="10" points="142.286,139.686 142.286,116.75 165.932,116.75 
		165.932,139.686 183.25,139.686 183.25,160.965 165.932,160.965 165.932,183.25 142.286,183.25 142.286,160.965 116.75,160.965 
		116.75,139.686 	"/>
</g>
</svg>
